#N canvas 0 22 1280 752 10;
#X obj 522 146 inlet;
#X obj 522 181 del 200;
#X msg 496 213 1 \, 0 600;
#X msg 563 213 1 \, 0 6000;
#X obj 497 245 line;
#X obj 563 244 line;
#X obj 498 271 * 30;
#X obj 499 299 + 3;
#X obj 451 302 noise~;
#X obj 453 332 lop~ 3;
#X obj 454 362 *~ 80;
#X obj 456 416 *~;
#X obj 484 392 noise~;
#X obj 454 446 clip~ -1 1;
#X obj 455 478 bp~ 333 4;
#X obj 455 512 *~;
#X obj 456 545 *~ 0.9;
#X obj 457 574 outlet~;
#X connect 0 0 1 0;
#X connect 1 0 2 0;
#X connect 1 0 3 0;
#X connect 2 0 4 0;
#X connect 3 0 5 0;
#X connect 4 0 6 0;
#X connect 5 0 15 1;
#X connect 6 0 7 0;
#X connect 7 0 9 1;
#X connect 8 0 9 0;
#X connect 9 0 10 0;
#X connect 10 0 11 0;
#X connect 11 0 13 0;
#X connect 12 0 11 1;
#X connect 13 0 14 0;
#X connect 14 0 15 0;
#X connect 15 0 16 0;
#X connect 16 0 17 0;
