#N canvas 426 194 625 507 10;
#X declare -lib motex;
#X obj 13 14 import motex;
#X obj 147 205 pan~;
#X obj 213 142 line -45 45;
#X msg 231 63 -45 1500;
#X msg 318 81 45 1500;
#X obj 216 175 hsl 128 15 -45 45 0 0 empty empty empty -2 -8 0 10 -262144
-1 -1 0 1;
#X obj 232 8 r left;
#X obj 290 8 r right;
#X obj 251 35 bng 15 250 50 0 empty empty empty 17 7 0 10 -262144 -1
-1;
#X obj 310 38 bng 15 250 50 0 empty empty empty 17 7 0 10 -262144 -1
-1;
#X msg 244 90 0 750;
#X obj 220 198 moses 45;
#X obj 239 261 s left;
#X obj 211 312 s right;
#X obj 92 116 inlet~;
#X obj 401 26 loadbang;
#X obj 9 297 outlet~ Left;
#X obj 96 297 outlet~ Right;
#X obj 211 285 delay 5000;
#X obj 210 230 delay 5000;
#X connect 1 0 16 0;
#X connect 1 1 17 0;
#X connect 2 0 5 0;
#X connect 3 0 2 0;
#X connect 4 0 2 0;
#X connect 5 0 1 1;
#X connect 5 0 11 0;
#X connect 6 0 8 0;
#X connect 6 0 3 0;
#X connect 7 0 9 0;
#X connect 7 0 4 0;
#X connect 10 0 2 0;
#X connect 11 1 19 0;
#X connect 14 0 1 0;
#X connect 15 0 4 0;
#X connect 18 0 13 0;
#X connect 19 0 12 0;
#X connect 19 0 18 0;
