#N canvas 0 22 1280 752 10;
#X obj 586 170 noise~;
#X obj 586 201 lop~ 80;
#X obj 587 229 lop~ 80;
#X obj 589 258 hip~ 15;
#X obj 590 286 *~ 12;
#X obj 589 315 clip~ -1 1;
#X obj 593 341 lop~ 80;
#X obj 593 370 lop~ 80;
#X obj 595 400 *~;
#X obj 595 428 outlet~;
#X obj 681 231 inlet;
#X obj 682 260 del 1000;
#X msg 683 286 1 \, 2000 \, 0 20000 2000;
#X obj 687 316 vline~;
#X obj 688 353 *~;
#X connect 0 0 1 0;
#X connect 1 0 2 0;
#X connect 2 0 3 0;
#X connect 3 0 4 0;
#X connect 4 0 5 0;
#X connect 5 0 6 0;
#X connect 6 0 7 0;
#X connect 7 0 8 0;
#X connect 8 0 9 0;
#X connect 10 0 11 0;
#X connect 11 0 12 0;
#X connect 12 0 13 0;
#X connect 13 0 14 0;
#X connect 13 0 14 1;
#X connect 14 0 8 1;
