#N canvas 0 22 450 300 10;
#X obj 188 166 cos~;
#X obj 188 94 -~ 0.5;
#X obj 188 142 clip~ -0.5 0.5;
#X obj 188 190 hip~ 5;
#X obj 188 118 *~ 82;
#X obj 188 70 phasor~ 2;
#X obj 186 233 outlet~;
#X connect 0 0 3 0;
#X connect 1 0 4 0;
#X connect 2 0 0 0;
#X connect 3 0 6 0;
#X connect 4 0 2 0;
#X connect 5 0 1 0;
