#N canvas 0 22 1280 752 10;
#X obj 484 187 firegen;
#X obj 464 245 bp~ 600 0.2;
#X obj 726 243 hip~ 1000;
#X obj 639 244 bp~ 2600 0.4;
#X obj 557 246 bp~ 1200 0.6;
#X obj 721 189 firegen;
#X obj 650 189 firegen;
#X obj 570 188 firegen;
#X obj 586 348 outlet~ Left;
#X obj 687 348 outlet~ Right;
#X obj 620 298 *~ 0.1;
#X connect 0 0 1 0;
#X connect 1 0 10 0;
#X connect 2 0 10 0;
#X connect 3 0 10 0;
#X connect 4 0 10 0;
#X connect 5 0 2 0;
#X connect 6 0 3 0;
#X connect 7 0 4 0;
#X connect 10 0 8 0;
#X connect 10 0 9 0;
