#N canvas 0 22 1280 752 10;
#X obj 572 225 noise~;
#X obj 573 273 bp~ 30 5;
#X obj 574 312 *~ 100;
#X obj 574 347 hip~ 25;
#X obj 573 383 clip~ -0.9 0.9;
#X obj 573 417 hip~ 25;
#X obj 573 458 *~ 0.6;
#X obj 577 500 outlet~;
#X obj 573 186 inlet~;
#X connect 0 0 1 0;
#X connect 1 0 2 0;
#X connect 2 0 3 0;
#X connect 3 0 4 0;
#X connect 4 0 5 0;
#X connect 5 0 6 0;
#X connect 6 0 7 0;
#X connect 8 0 0 0;
