#N canvas 0 22 1280 752 10;
#X obj 524 204 noise~;
#X obj 477 260 max~ 0;
#X obj 537 260 min~ 0;
#X obj 500 341 +~;
#X obj 538 296 *~ -1;
#X obj 501 378 *~;
#X obj 501 408 +~;
#X obj 499 440 ln~;
#X obj 500 477 *~ -2;
#X obj 501 513 q8_sqrt~;
#X obj 501 547 *~;
#X obj 614 260 sig~ \$1;
#X obj 599 298 sig~ 1;
#X obj 598 349 -~;
#X obj 588 480 noise~;
#X obj 589 510 cos~;
#X obj 502 584 outlet~;
#X connect 0 0 1 0;
#X connect 0 0 2 0;
#X connect 1 0 3 0;
#X connect 2 0 4 0;
#X connect 3 0 5 0;
#X connect 4 0 3 1;
#X connect 5 0 6 0;
#X connect 6 0 7 0;
#X connect 7 0 8 0;
#X connect 8 0 9 0;
#X connect 9 0 10 0;
#X connect 10 0 16 0;
#X connect 11 0 5 1;
#X connect 11 0 13 1;
#X connect 12 0 13 0;
#X connect 13 0 6 1;
#X connect 14 0 15 0;
#X connect 15 0 10 1;
