#N canvas 0 22 1280 752 10;
#X obj 569 210 noise~;
#X obj 513 255 hip~ 1000;
#X obj 616 258 lop~ 1;
#X obj 620 304 *~ 10;
#X obj 622 339 *~;
#X obj 621 376 *~;
#X obj 620 414 *~ 600;
#X obj 560 447 *~;
#X obj 558 493 outlet~;
#X obj 571 159 inlet~;
#X connect 0 0 2 0;
#X connect 0 0 1 0;
#X connect 1 0 7 0;
#X connect 2 0 3 0;
#X connect 3 0 4 0;
#X connect 3 0 4 1;
#X connect 4 0 5 0;
#X connect 4 0 5 1;
#X connect 5 0 6 0;
#X connect 6 0 7 1;
#X connect 7 0 8 0;
#X connect 9 0 0 0;
