#N canvas 0 22 1280 752 10;
#X declare -lib motex;
#X obj 237 91 iag~;
#X msg 569 574 print;
#X msg 480 520 bang;
#X msg 559 524 start;
#X msg 565 549 stop;
#X obj 480 551 del 1000;
#X obj 538 640 writesf~ 2;
#X msg 554 500 open chooseafilename.wav;
#X text 468 479 Click open object followed by start to begin recording
;
#X connect 0 0 6 0;
#X connect 0 1 6 1;
#X connect 1 0 6 0;
#X connect 2 0 3 0;
#X connect 2 0 5 0;
#X connect 3 0 6 0;
#X connect 4 0 6 0;
#X connect 5 0 4 0;
#X connect 7 0 6 0;
