#N canvas 0 22 1280 752 10;
#X declare -lib motex;
#X obj 237 91 iag~;
#X msg 548 596 print;
#X msg 480 520 bang;
#X msg 547 552 start;
#X msg 549 574 stop;
#X obj 480 551 del 1000;
#X obj 538 640 writesf~ 2;
#X msg 542 521 open chooseafilename.wav;
#X connect 0 0 6 0;
#X connect 0 1 6 1;
#X connect 1 0 6 0;
#X connect 2 0 3 0;
#X connect 2 0 5 0;
#X connect 3 0 6 0;
#X connect 4 0 6 0;
#X connect 5 0 4 0;
#X connect 7 0 6 0;
