#N canvas 0 22 1280 752 12;
#X declare -lib motex;
#X obj 870 799 dac~;
#X text 714 784 Left;
#X text 956 783 Right;
#X obj 1324 367 wind;
#X obj 1140 371 fire;
#X obj 1465 362 rain;
#X obj 1608 365 thunder;
#X obj 1130 415 *~ 8;
#X obj 1309 410 *~ 20;
#X obj 1172 417 *~ 8;
#X obj 1352 410 *~ 20;
#X obj 1451 403 *~ 24;
#X obj 1496 404 *~ 24;
#X obj 1590 409 *~ 24;
#X obj 1648 408 *~ 24;
#X obj 140 137 Fire_L;
#X obj 224 137 Fire_R;
#X obj 308 137 Wind_L;
#X obj 391 137 Wind_R;
#X obj 476 137 Rain_L;
#X obj 558 137 Rain_R;
#X obj 640 137 Thunder_L;
#X obj 724 137 Thunder_R;
#X obj 300 373 hsl 350 30 0 1 0 0 empty empty Master_Volume -2 -8 0
12 -262130 -1 -1 0 1;
#X obj 756 785 *~;
#X obj 1000 784 *~;
#X text 352 108 Intelligent Ambience Generator 1;
#X obj 1171 774 outlet~ left;
#X obj 1288 777 outlet~ right;
#X connect 3 0 8 0;
#X connect 3 1 10 0;
#X connect 4 0 7 0;
#X connect 4 1 9 0;
#X connect 5 0 11 0;
#X connect 5 1 12 0;
#X connect 6 0 13 0;
#X connect 6 1 14 0;
#X connect 7 0 15 0;
#X connect 8 0 17 0;
#X connect 9 0 16 0;
#X connect 10 0 18 0;
#X connect 11 0 19 0;
#X connect 12 0 20 0;
#X connect 13 0 21 0;
#X connect 14 0 22 0;
#X connect 15 0 24 0;
#X connect 15 1 25 0;
#X connect 16 0 24 0;
#X connect 16 1 25 0;
#X connect 17 0 24 0;
#X connect 17 1 25 0;
#X connect 18 0 24 0;
#X connect 18 1 25 0;
#X connect 19 0 24 0;
#X connect 19 1 25 0;
#X connect 20 0 24 0;
#X connect 20 1 25 0;
#X connect 21 0 24 0;
#X connect 21 1 25 0;
#X connect 22 0 24 0;
#X connect 22 1 25 0;
#X connect 23 0 24 1;
#X connect 23 0 25 1;
#X connect 24 0 0 0;
#X connect 24 0 27 0;
#X connect 25 0 0 1;
#X connect 25 0 28 0;
#X coords 0 -1 1 1 750 320 1 100 100;
