#N canvas 0 22 1280 752 12;
#X declare -lib motex;
#X obj 578 700 dac~;
#X text 404 490 Left;
#X text 758 488 Right;
#X obj 446 491 *~ 0.125;
#X obj 690 490 *~ 0.125;
#X obj 519 85 wind;
#X obj 335 89 fire;
#X obj 660 80 rain;
#X obj 803 83 thunder;
#X obj 504 128 *~ 20;
#X obj 547 128 *~ 20;
#X obj 646 121 *~ 24;
#X obj 691 122 *~ 24;
#X obj 785 127 *~ 24;
#X obj 843 126 *~ 24;
#X obj 304 195 Fire_L;
#X obj 390 196 Fire_R;
#X obj 467 196 Wind_L;
#X obj 545 196 Wind_R;
#X obj 621 195 Rain_L;
#X obj 696 195 Rain_R;
#X obj 773 195 Thunder_L;
#X obj 851 195 Thunder_R;
#X obj 325 133 *~ 12;
#X obj 368 132 *~ 12;
#X obj 448 546 hsl 350 30 0 1 0 0 empty empty Master -2 -8 0 12 -203904
-1 -1 0 1;
#X connect 3 0 0 0;
#X connect 4 0 0 1;
#X connect 5 0 9 0;
#X connect 5 1 10 0;
#X connect 6 0 23 0;
#X connect 6 1 24 0;
#X connect 7 0 11 0;
#X connect 7 1 12 0;
#X connect 8 0 13 0;
#X connect 8 1 14 0;
#X connect 9 0 17 0;
#X connect 10 0 18 0;
#X connect 11 0 19 0;
#X connect 12 0 20 0;
#X connect 13 0 21 0;
#X connect 14 0 22 0;
#X connect 15 0 3 0;
#X connect 15 1 4 0;
#X connect 16 0 3 0;
#X connect 16 1 4 0;
#X connect 17 0 3 0;
#X connect 17 1 4 0;
#X connect 18 0 3 0;
#X connect 18 1 4 0;
#X connect 19 0 3 0;
#X connect 19 1 4 0;
#X connect 20 0 3 0;
#X connect 20 1 4 0;
#X connect 21 0 3 0;
#X connect 21 1 4 0;
#X connect 22 0 3 0;
#X connect 22 1 4 0;
#X connect 23 0 15 0;
#X connect 24 0 16 0;
#X connect 25 0 3 1;
#X connect 25 0 4 1;
