#N canvas 0 22 1280 752 10;
#X obj 571 166 inlet;
#X obj 570 217 strikepattern;
#X obj 571 251 route 0 1 2 3;
#X obj 572 289 strikesound;
#X obj 593 316 strikesound;
#X obj 609 338 strikesound;
#X obj 622 359 strikesound;
#X obj 565 396 outlet~;
#X connect 0 0 1 0;
#X connect 1 0 2 0;
#X connect 2 0 3 0;
#X connect 2 1 4 0;
#X connect 2 2 5 0;
#X connect 2 3 6 0;
#X connect 3 0 7 0;
#X connect 4 0 7 0;
#X connect 5 0 7 0;
#X connect 6 0 7 0;
