#N canvas 0 22 1280 752 10;
#X obj 511 91 threshold~ 0.01 1 0.01 1;
#X obj 511 132 t b b;
#X obj 513 266 f;
#X msg 513 299 0 \, 1 \$1;
#X obj 513 340 vline~;
#X obj 515 389 delwrite~ a 3;
#X obj 516 424 delread~ a 3;
#X obj 516 459 pow~;
#X obj 516 490 *~;
#X obj 485 564 *~;
#X obj 435 413 sig~ 1;
#X obj 436 447 -~;
#X obj 438 479 *~;
#X obj 439 506 *~;
#X obj 485 594 *~;
#X obj 575 212 trigger f f f f;
#X obj 572 242 / 7;
#X obj 608 292 + 2;
#X obj 673 290 / 5;
#X obj 677 332 + 400;
#X obj 725 363 / 1000;
#X obj 440 532 lop~ 10;
#X obj 518 526 osc~;
#X obj 574 176 random 100;
#X obj 612 259 / 10;
#X obj 510 50 gaussianoise 85 0.1;
#X obj 405 709 outlet~ Left;
#X obj 530 707 outlet~ Right;
#X obj 483 623 lop~ 14000;
#X obj 485 654 *~ 2;
#X connect 0 0 1 0;
#X connect 1 0 2 0;
#X connect 1 1 23 0;
#X connect 2 0 3 0;
#X connect 3 0 4 0;
#X connect 4 0 5 0;
#X connect 4 0 11 1;
#X connect 6 0 7 0;
#X connect 7 0 8 0;
#X connect 8 0 22 0;
#X connect 9 0 14 0;
#X connect 10 0 11 0;
#X connect 11 0 12 0;
#X connect 11 0 12 1;
#X connect 12 0 13 0;
#X connect 12 0 13 1;
#X connect 13 0 21 0;
#X connect 14 0 28 0;
#X connect 15 0 16 0;
#X connect 15 1 24 0;
#X connect 15 2 18 0;
#X connect 15 3 20 0;
#X connect 16 0 2 1;
#X connect 17 0 7 1;
#X connect 18 0 19 0;
#X connect 19 0 8 1;
#X connect 20 0 14 1;
#X connect 21 0 9 0;
#X connect 22 0 9 1;
#X connect 23 0 15 0;
#X connect 24 0 17 0;
#X connect 25 0 0 0;
#X connect 28 0 29 0;
#X connect 29 0 26 0;
#X connect 29 0 27 0;
