#N canvas 0 22 1280 752 10;
#X obj 500 47 inlet trig;
#X obj 581 48 inlet density;
#X msg 502 85 1 50 \, 0 8000 50;
#X obj 501 118 vline~;
#X obj 568 117 noise~;
#X obj 569 143 lop~;
#X obj 570 168 lop~;
#X obj 569 196 max~ 0;
#X obj 568 223 *~ 3000;
#X obj 567 248 +~ 1;
#X obj 566 270 phasor~;
#X obj 512 222 noise~;
#X obj 511 247 lop~;
#X obj 513 272 lop~;
#X obj 520 310 samphold~;
#X obj 522 336 rpole~ 0.99;
#X obj 522 367 *~ 0.04;
#X obj 504 403 min~ 0;
#X obj 554 404 max~ 0;
#X obj 503 437 *~ -1;
#X obj 503 467 +~;
#X obj 521 498 -~ 0.5;
#X obj 522 526 *~;
#X obj 522 550 *~ -4;
#X obj 523 574 +~ 1;
#X obj 520 599 *~ 0.5;
#X obj 503 625 *~;
#X obj 502 651 hip~ 100;
#X obj 479 679 *~;
#X obj 480 705 outlet~;
#X connect 0 0 2 0;
#X connect 1 0 12 1;
#X connect 1 0 13 1;
#X connect 1 0 5 1;
#X connect 1 0 6 1;
#X connect 2 0 3 0;
#X connect 3 0 28 0;
#X connect 4 0 5 0;
#X connect 5 0 6 0;
#X connect 6 0 7 0;
#X connect 7 0 8 0;
#X connect 8 0 9 0;
#X connect 9 0 10 0;
#X connect 10 0 14 1;
#X connect 11 0 12 0;
#X connect 12 0 13 0;
#X connect 13 0 14 0;
#X connect 14 0 15 0;
#X connect 15 0 16 0;
#X connect 16 0 17 0;
#X connect 16 0 18 0;
#X connect 17 0 19 0;
#X connect 18 0 20 1;
#X connect 19 0 20 0;
#X connect 20 0 21 0;
#X connect 20 0 26 0;
#X connect 21 0 22 0;
#X connect 22 0 23 0;
#X connect 23 0 24 0;
#X connect 24 0 25 0;
#X connect 25 0 26 1;
#X connect 26 0 27 0;
#X connect 27 0 28 1;
#X connect 28 0 29 0;
