#N canvas 0 22 1280 752 10;
#X obj 493 147 r shake;
#X obj 494 176 t b b;
#X obj 522 212 \$1;
#X obj 523 241 * 10000;
#X obj 494 268 random;
#X obj 493 297 / 10000;
#X obj 494 326 t f b f b;
#X obj 564 174 delwrite~ \$0-a \$1;
#X obj 498 445 delread~ \$0-a;
#X obj 512 357 \$1;
#X obj 514 388 -;
#X obj 515 420 / \$1;
#X obj 557 358 random 10000;
#X obj 558 390 / 20000;
#X obj 558 420 + 0.5;
#X obj 539 478 *;
#X obj 501 582 bp~ 1000 2;
#X obj 543 510 * 400;
#X obj 544 534 + 400;
#X obj 502 613 *~;
#N canvas 612 362 450 300 cpan 0;
#X obj 97 16 inlet~ signal;
#X obj 190 15 inlet control;
#X obj 193 44 sig~;
#X obj 195 73 lop~ 1;
#X obj 198 99 *~ 0.25;
#X obj 199 124 -~ 0.25;
#X obj 200 147 cos~;
#X obj 128 181 -~ 0.25;
#X obj 189 220 *~;
#X obj 129 207 cos~;
#X obj 97 235 *~;
#X obj 101 264 outlet~ left;
#X obj 200 266 outlet~ right;
#X connect 0 0 8 0;
#X connect 0 0 10 0;
#X connect 1 0 2 0;
#X connect 2 0 3 0;
#X connect 3 0 4 0;
#X connect 4 0 5 0;
#X connect 5 0 6 0;
#X connect 5 0 7 0;
#X connect 6 0 8 1;
#X connect 7 0 9 0;
#X connect 8 0 12 0;
#X connect 9 0 10 1;
#X connect 10 0 11 0;
#X restore 501 645 pd cpan;
#X obj 506 683 throw~ 1a;
#X obj 574 684 throw~ ra;
#X obj 562 146 r~ singleref;
#X connect 0 0 1 0;
#X connect 1 0 4 0;
#X connect 1 1 2 0;
#X connect 2 0 3 0;
#X connect 3 0 4 1;
#X connect 4 0 5 0;
#X connect 5 0 6 0;
#X connect 6 0 8 0;
#X connect 6 1 9 0;
#X connect 6 2 10 1;
#X connect 6 3 12 0;
#X connect 8 0 16 0;
#X connect 9 0 10 0;
#X connect 10 0 11 0;
#X connect 11 0 15 0;
#X connect 12 0 13 0;
#X connect 13 0 14 0;
#X connect 14 0 15 1;
#X connect 15 0 17 0;
#X connect 15 0 19 1;
#X connect 15 0 20 1;
#X connect 16 0 19 0;
#X connect 17 0 18 0;
#X connect 18 0 16 1;
#X connect 19 0 20 0;
#X connect 20 0 21 0;
#X connect 20 1 22 0;
#X connect 23 0 7 0;
