#N canvas 0 22 1280 752 10;
#X obj 246 240 bng 15 250 50 0 empty empty empty 17 7 0 10 -262144
-1 -1;
#X obj 247 272 s go;
#X obj 247 325 r go;
#N canvas 0 22 1280 752 strike 0;
#X obj 564 225 inlet;
#X obj 563 269 t f f;
#X obj 558 307 swap 1;
#X obj 557 342 -;
#X obj 556 373 + 0.4;
#X obj 555 405 pow 5;
#X obj 555 441 * 200;
#X msg 554 475 1 \, 0 \$1 0;
#X obj 556 512 vline~;
#X obj 525 547 *~;
#X obj 480 478 noise~;
#X obj 523 597 bp~ 1 3;
#X obj 612 595 bp~ 1 3;
#X obj 632 308 * 1200;
#X obj 632 338 + 100;
#X obj 632 366 t f f;
#X obj 663 404 * 0.5;
#X obj 575 650 outlet~;
#X connect 0 0 1 0;
#X connect 1 0 2 0;
#X connect 1 1 13 0;
#X connect 2 0 3 0;
#X connect 2 1 3 1;
#X connect 3 0 4 0;
#X connect 4 0 5 0;
#X connect 5 0 6 0;
#X connect 6 0 7 0;
#X connect 7 0 8 0;
#X connect 8 0 9 1;
#X connect 9 0 11 0;
#X connect 9 0 12 0;
#X connect 10 0 9 0;
#X connect 11 0 17 0;
#X connect 12 0 17 0;
#X connect 13 0 14 0;
#X connect 14 0 15 0;
#X connect 15 0 11 1;
#X connect 15 1 16 0;
#X connect 16 0 12 1;
#X restore 247 358 pd strike sound;
#X obj 248 385 *~ 0.3;
#X obj 249 414 throw~ out;
#X obj 405 326 r go;
#N canvas 459 301 450 300 rumble 0;
#X obj 510 57 inlet trig;
#X obj 591 58 inlet density;
#X msg 512 95 1 50 \, 0 8000 50;
#X obj 511 128 vline~;
#X obj 578 127 noise~;
#X obj 579 153 lop~;
#X obj 580 178 lop~;
#X obj 579 206 max~ 0;
#X obj 578 233 *~ 3000;
#X obj 577 258 +~ 1;
#X obj 576 280 phasor~;
#X obj 522 232 noise~;
#X obj 521 257 lop~;
#X obj 523 282 lop~;
#X obj 530 320 samphold~;
#X obj 532 346 rpole~ 0.99;
#X obj 532 377 *~ 0.04;
#X obj 514 413 min~ 0;
#X obj 564 414 max~ 0;
#X obj 513 447 *~ -1;
#X obj 513 477 +~;
#X obj 531 508 -~ 0.5;
#X obj 532 536 *~;
#X obj 532 560 *~ -4;
#X obj 533 584 +~ 1;
#X obj 530 609 *~ 0.5;
#X obj 513 635 *~;
#X obj 512 661 hip~ 100;
#X obj 489 689 *~;
#X obj 490 715 outlet~;
#X connect 0 0 2 0;
#X connect 1 0 12 1;
#X connect 1 0 13 1;
#X connect 1 0 5 1;
#X connect 1 0 6 1;
#X connect 2 0 3 0;
#X connect 3 0 28 0;
#X connect 4 0 5 0;
#X connect 5 0 6 0;
#X connect 6 0 7 0;
#X connect 7 0 8 0;
#X connect 8 0 9 0;
#X connect 9 0 10 0;
#X connect 10 0 14 1;
#X connect 11 0 12 0;
#X connect 12 0 13 0;
#X connect 13 0 14 0;
#X connect 14 0 15 0;
#X connect 15 0 16 0;
#X connect 16 0 17 0;
#X connect 16 0 18 0;
#X connect 17 0 19 0;
#X connect 18 0 20 1;
#X connect 19 0 20 0;
#X connect 20 0 21 0;
#X connect 20 0 26 0;
#X connect 21 0 22 0;
#X connect 22 0 23 0;
#X connect 23 0 24 0;
#X connect 24 0 25 0;
#X connect 25 0 26 1;
#X connect 26 0 27 0;
#X connect 27 0 28 1;
#X connect 28 0 29 0;
#X restore 407 359 pd rumble;
#X obj 408 388 *~ 0.3;
#X obj 407 413 throw~ distance;
#X obj 462 220 r go;
#X msg 461 254 1 \, 0 9000;
#X obj 463 282 line;
#X obj 466 314 * 2000;
#X obj 573 320 r go;
#N canvas 653 296 450 300 afterimage 0;
#X obj 532 156 inlet;
#X obj 532 191 del 200;
#X msg 506 223 1 \, 0 600;
#X msg 573 223 1 \, 0 6000;
#X obj 507 255 line;
#X obj 573 254 line;
#X obj 508 281 * 30;
#X obj 509 309 + 3;
#X obj 461 312 noise~;
#X obj 463 342 lop~ 3;
#X obj 464 372 *~ 80;
#X obj 466 426 *~;
#X obj 494 402 noise~;
#X obj 464 456 clip~ -1 1;
#X obj 465 488 bp~ 333 4;
#X obj 465 522 *~;
#X obj 466 555 *~ 0.9;
#X obj 467 584 outlet~;
#X connect 0 0 1 0;
#X connect 1 0 2 0;
#X connect 1 0 3 0;
#X connect 2 0 4 0;
#X connect 3 0 5 0;
#X connect 4 0 6 0;
#X connect 5 0 15 1;
#X connect 6 0 7 0;
#X connect 7 0 9 1;
#X connect 8 0 9 0;
#X connect 9 0 10 0;
#X connect 10 0 11 0;
#X connect 11 0 13 0;
#X connect 12 0 11 1;
#X connect 13 0 14 0;
#X connect 14 0 15 0;
#X connect 15 0 16 0;
#X connect 16 0 17 0;
#X restore 571 350 pd afterimage;
#X obj 572 384 *~ 0.9;
#X obj 570 412 throw~ out;
#X obj 705 315 r go;
#N canvas 779 303 450 300 deep 0;
#X obj 596 180 noise~;
#X obj 596 211 lop~ 80;
#X obj 597 239 lop~ 80;
#X obj 599 268 hip~ 15;
#X obj 600 296 *~ 12;
#X obj 599 325 clip~ -1 1;
#X obj 603 351 lop~ 80;
#X obj 603 380 lop~ 80;
#X obj 605 410 *~;
#X obj 605 438 outlet~;
#X obj 691 241 inlet;
#X obj 692 270 del 1000;
#X msg 693 296 1 \, 2000 \, 0 20000 2000;
#X obj 697 326 vline~;
#X obj 698 363 *~;
#X connect 0 0 1 0;
#X connect 1 0 2 0;
#X connect 2 0 3 0;
#X connect 3 0 4 0;
#X connect 4 0 5 0;
#X connect 5 0 6 0;
#X connect 6 0 7 0;
#X connect 7 0 8 0;
#X connect 8 0 9 0;
#X connect 10 0 11 0;
#X connect 11 0 12 0;
#X connect 12 0 13 0;
#X connect 13 0 14 0;
#X connect 13 0 14 1;
#X connect 14 0 8 1;
#X restore 700 349 pd deep;
#X obj 700 381 *~ 0.5;
#X obj 697 414 throw~ distance;
#X obj 835 352 r go;
#X obj 835 384 s shake;
#N canvas 880 386 450 300 box 0;
#X obj 606 172 switch~;
#X obj 606 135 inlet;
#X obj 477 245 singleref 12000;
#X obj 487 255 singleref 12000;
#X obj 497 265 singleref 12000;
#X obj 507 275 singleref 12000;
#X obj 517 285 singleref 12000;
#X obj 527 295 singleref 12000;
#X obj 537 305 singleref 12000;
#X obj 547 315 singleref 12000;
#X obj 557 325 singleref 12000;
#X obj 567 335 singleref 12000;
#X obj 254 248 singleref 12000;
#X obj 264 258 singleref 12000;
#X obj 274 268 singleref 12000;
#X obj 284 278 singleref 12000;
#X obj 294 288 singleref 12000;
#X obj 304 298 singleref 12000;
#X obj 314 308 singleref 12000;
#X obj 324 318 singleref 12000;
#X obj 334 328 singleref 12000;
#X obj 344 338 singleref 12000;
#X obj 366 248 singleref 12000;
#X obj 376 258 singleref 12000;
#X obj 386 268 singleref 12000;
#X obj 396 278 singleref 12000;
#X obj 406 288 singleref 12000;
#X obj 416 298 singleref 12000;
#X obj 426 308 singleref 12000;
#X obj 436 318 singleref 12000;
#X obj 446 328 singleref 12000;
#X obj 456 338 singleref 12000;
#X obj 143 252 singleref 12000;
#X obj 153 262 singleref 12000;
#X obj 163 272 singleref 12000;
#X obj 173 282 singleref 12000;
#X obj 183 292 singleref 12000;
#X obj 193 302 singleref 12000;
#X obj 203 312 singleref 12000;
#X obj 213 322 singleref 12000;
#X obj 223 332 singleref 12000;
#X obj 233 342 singleref 12000;
#X connect 1 0 0 0;
#X restore 808 414 pd box of delays;
#X obj 806 381 tgl 15 0 empty empty empty 17 7 0 10 -262144 -1 -1 1
1;
#X obj 652 510 r go;
#X msg 650 547 0 \, 1 12000;
#X obj 652 574 line;
#X obj 594 605 distance;
#X obj 431 607 catch~ 1a;
#X obj 501 606 catch~ out;
#X obj 721 606 catch~ ra;
#X obj 596 632 s~ singleref;
#X obj 602 485 catch~ distance;
#X obj 244 136 metro 50;
#X obj 562 689 outlet~ left;
#X obj 675 690 outlet~ right;
#X obj 308 136 random 10000;
#X obj 245 88 loadbang;
#X connect 0 0 1 0;
#X connect 2 0 3 0;
#X connect 3 0 4 0;
#X connect 4 0 5 0;
#X connect 6 0 7 0;
#X connect 7 0 8 0;
#X connect 8 0 9 0;
#X connect 10 0 11 0;
#X connect 11 0 12 0;
#X connect 12 0 13 0;
#X connect 13 0 7 1;
#X connect 14 0 15 0;
#X connect 15 0 16 0;
#X connect 16 0 17 0;
#X connect 18 0 19 0;
#X connect 19 0 20 0;
#X connect 20 0 21 0;
#X connect 22 0 23 0;
#X connect 25 0 24 0;
#X connect 26 0 27 0;
#X connect 27 0 28 0;
#X connect 28 0 29 1;
#X connect 29 0 33 0;
#X connect 29 0 37 0;
#X connect 29 0 36 0;
#X connect 30 0 36 0;
#X connect 31 0 36 0;
#X connect 31 0 37 0;
#X connect 32 0 37 0;
#X connect 34 0 29 0;
#X connect 35 0 0 0;
#X connect 35 0 38 0;
#X connect 38 0 35 1;
#X connect 39 0 35 0;
