#N canvas 0 22 1280 752 10;
#X obj 458 156 loadbang;
#X obj 532 157 inlet rate;
#X obj 621 159 inlet depth;
#X msg 460 198 1;
#X obj 463 240 metro 6;
#N canvas 397 238 450 300 bilexep 0;
#X obj 147 -116 inlet;
#X obj 148 -69 t b;
#X obj 148 -26 random 8192;
#X obj 149 7 mod 4096;
#X obj 197 40 > 4096;
#X obj 148 39 / 4096;
#X obj 148 70 * 9;
#X obj 148 99 exp;
#X obj 148 126 *;
#X obj 147 151 / 23000;
#X obj 219 151 outlet;
#X obj 196 69 sel 0 1;
#X msg 192 99 -1;
#X msg 232 99 1;
#X connect 0 0 1 0;
#X connect 1 0 2 0;
#X connect 2 0 3 0;
#X connect 2 0 4 0;
#X connect 3 0 5 0;
#X connect 4 0 11 0;
#X connect 5 0 6 0;
#X connect 6 0 7 0;
#X connect 7 0 8 0;
#X connect 8 0 9 0;
#X connect 9 0 10 0;
#X connect 11 0 12 0;
#X connect 11 1 13 0;
#X connect 12 0 8 1;
#X connect 13 0 8 1;
#X restore 458 280 pd bilexep;
#X obj 460 313 * 1600;
#X obj 462 346 + 800;
#X obj 460 380 pack 1 2.689;
#X obj 460 417 line~;
#X obj 459 448 osc~;
#X obj 521 461 fexpr~ $x1 - $x1[-1];
#X obj 521 492 clip~ 0 1;
#X obj 521 525 lop~ 10;
#X obj 521 560 *~ 0.9;
#X obj 520 598 *~;
#X obj 486 629 *~;
#X obj 490 716 outlet~;
#X obj 492 665 *~ 0.3;
#X connect 0 0 3 0;
#X connect 1 0 4 1;
#X connect 2 0 7 1;
#X connect 3 0 4 0;
#X connect 4 0 5 0;
#X connect 5 0 6 0;
#X connect 6 0 7 0;
#X connect 7 0 8 0;
#X connect 8 0 9 0;
#X connect 9 0 10 0;
#X connect 9 0 11 0;
#X connect 10 0 16 0;
#X connect 11 0 12 0;
#X connect 12 0 13 0;
#X connect 13 0 14 0;
#X connect 14 0 15 0;
#X connect 14 0 15 1;
#X connect 15 0 16 1;
#X connect 16 0 18 0;
#X connect 18 0 17 0;
